<svg xmlns="http://www.w3.org/2000/svg" viewBox="0 0 120 120" role="img" aria-label="Nextra concept: Pixelcast">
  <defs>
    <linearGradient id="c7-g" x1="0" y1="0" x2="1" y2="1">
      <stop offset="0" stop-color="#a9c4f7"/>
      <stop offset="1" stop-color="#5b8def"/>
    </linearGradient>
  </defs>
  <path fill="url(#c7-g)" d="M34 88 L34 32 L46 32 L64 53.9 L64 75.9 L46 54 L46 88 Z"/>
  <path fill="url(#c7-g)" d="M74 32 L86 32 L86 56 L74 56 Z"/>
  <g fill="#5b8def">
    <rect x="67" y="58" width="9" height="9" rx="1.5"/>
    <rect x="77" y="61" width="8" height="8" rx="1.5" opacity="0.95"/>
    <rect x="68" y="71" width="6" height="6" rx="1.2" opacity="0.8"/>
    <rect x="75" y="72" width="7" height="7" rx="1.2" opacity="0.85"/>
    <rect x="78" y="84" width="6" height="6" rx="1.2" opacity="0.75"/>
    <rect x="88" y="68" width="5" height="5" rx="1" opacity="0.6"/>
    <rect x="86" y="80" width="4.5" height="4.5" rx="1" opacity="0.55"/>
    <rect x="94" y="88" width="4" height="4" rx="1" opacity="0.45"/>
    <rect x="90" y="97" width="3.5" height="3.5" rx="0.8" opacity="0.4"/>
    <rect x="97" y="74" width="3" height="3" rx="0.8" opacity="0.35"/>
  </g>
</svg>
