<svg xmlns="http://www.w3.org/2000/svg" viewBox="0 0 216 120" role="img" aria-label="Nextra concept: Blockcut wordmark">
  <g fill="#7481ab">
    <rect x="10" y="40" width="9" height="40"/>
    <rect x="27" y="40" width="9" height="40"/>
    <path d="M10 40 L19 40 L36 80 L27 80 Z"/>
    <rect x="44" y="40" width="9" height="40"/>
    <rect x="44" y="40" width="24" height="9"/>
    <rect x="44" y="55.5" width="20" height="9"/>
    <rect x="44" y="71" width="24" height="9"/>
    <rect x="112" y="40" width="26" height="9"/>
    <rect x="120.5" y="40" width="9" height="40"/>
    <rect x="146" y="40" width="9" height="40"/>
    <rect x="146" y="40" width="26" height="9"/>
    <rect x="163" y="40" width="9" height="26"/>
    <rect x="146" y="57" width="26" height="9"/>
    <path d="M159 66 L168 66 L172 80 L163 80 Z"/>
    <path d="M188.5 40 L197.5 40 L189 80 L180 80 Z"/>
    <path d="M188.5 40 L197.5 40 L206 80 L197 80 Z"/>
    <rect x="185" y="63" width="16" height="8"/>
  </g>
  <g fill="#5b8def">
    <path d="M78 40 L87 40 L104 80 L95 80 Z"/>
    <path d="M95 40 L104 40 L87 80 L78 80 Z"/>
  </g>
</svg>
