<svg xmlns="http://www.w3.org/2000/svg" viewBox="0 0 120 120" role="img" aria-label="Union N Aurora: spark">
  <defs>
    <linearGradient id="b-tile" x1="0" y1="0" x2="0" y2="1">
      <stop offset="0" stop-color="#171a26"/>
      <stop offset="1" stop-color="#0b0c12"/>
    </linearGradient>
    <linearGradient id="b-ha" gradientUnits="userSpaceOnUse" x1="36" y1="86" x2="55" y2="52">
      <stop offset="0" stop-color="#4de3ff"/>
      <stop offset="1" stop-color="#5b8def"/>
    </linearGradient>
    <linearGradient id="b-hb" gradientUnits="userSpaceOnUse" x1="84" y1="34" x2="65" y2="68">
      <stop offset="0" stop-color="#a06bff"/>
      <stop offset="1" stop-color="#5b8def"/>
    </linearGradient>
    <filter id="b-blur" x="-50%" y="-50%" width="200%" height="200%">
      <feGaussianBlur stdDeviation="5"/>
    </filter>
  </defs>
  <rect x="8" y="8" width="104" height="104" rx="27" fill="url(#b-tile)"
        stroke="rgba(255,255,255,0.08)" stroke-width="2"/>
  <g filter="url(#b-blur)" opacity="0.6" fill="none" stroke-width="13"
     stroke-linecap="round" stroke-linejoin="round">
    <path d="M36 86 L36 34 L55 52.5" stroke="url(#b-ha)"/>
    <path d="M84 34 L84 86 L65 67.5" stroke="url(#b-hb)"/>
  </g>
  <path d="M36 86 L36 34 L55 52.5" fill="none" stroke="url(#b-ha)"
        stroke-width="13" stroke-linecap="round" stroke-linejoin="round"/>
  <path d="M84 34 L84 86 L65 67.5" fill="none" stroke="url(#b-hb)"
        stroke-width="13" stroke-linecap="round" stroke-linejoin="round"/>
  <circle cx="60" cy="60" r="8" fill="#4de3ff" filter="url(#b-blur)" opacity="0.85"/>
  <path d="M60 50.5 Q61.7 58.3 69.5 60 Q61.7 61.7 60 69.5 Q58.3 61.7 50.5 60 Q58.3 58.3 60 50.5 Z"
        fill="#ffffff"/>
</svg>
